<?xml version="1.0" encoding="UTF-8" standalone="no"?><svg xmlns="http://www.w3.org/2000/svg" xmlns:xlink="http://www.w3.org/1999/xlink" contentScriptType="application/ecmascript" contentStyleType="text/css" height="259px" preserveAspectRatio="none" style="width:160px;height:259px;" version="1.1" viewBox="0 0 160 259" width="160px" zoomAndPan="magnify"><defs/><g><rect fill="#FEFECE" height="246.6094" rx="12.5" ry="12.5" style="stroke:#A80036;stroke-width:1.5;" width="146.5" x="7" y="7"/><rect fill="#FFFFFF" height="213" rx="12.5" ry="12.5" style="stroke:#FFFFFF;stroke-width:1.0;" width="140.5" x="10" y="37.6094"/><line style="stroke:#A80036;stroke-width:1.5;" x1="7" x2="153.5" y1="34.6094" y2="34.6094"/><text fill="#000000" font-family="sans-serif" font-size="14" lengthAdjust="spacing" textLength="73" x="43.75" y="26.5332">RepairCard</text><ellipse cx="46.5" cy="55.6094" fill="#000000" rx="10" ry="10" style="stroke:none;stroke-width:1.0;"/><g id="RepairCard.exists"><rect fill="#FEFECE" height="50" rx="12.5" ry="12.5" style="stroke:#A80036;stroke-width:1.5;" width="55" x="19" y="119.6094"/><line style="stroke:#A80036;stroke-width:1.5;" x1="19" x2="74" y1="147.2188" y2="147.2188"/><text fill="#000000" font-family="sans-serif" font-size="14" lengthAdjust="spacing" textLength="35" x="29" y="139.1426">exists</text></g><ellipse cx="46.5" cy="233.6094" fill="none" rx="10" ry="10" style="stroke:#000000;stroke-width:1.0;"/><ellipse cx="47" cy="234.1094" fill="#000000" rx="6" ry="6" style="stroke:none;stroke-width:1.0;"/><!--MD5=[d7712c7a8650d4d306676b28010b66ea]
link *start*RepairCard to exists--><path d="M46.5,65.9194 C46.5,77.3594 46.5,97.3294 46.5,114.1494 " fill="none" id="*start*RepairCard-to-exists" style="stroke:#000000;stroke-width:1.0;"/><polygon fill="#000000" points="46.5,119.2594,50.5,110.2594,46.5,114.2594,42.5,110.2594,46.5,119.2594" style="stroke:#000000;stroke-width:1.0;"/><text fill="#000000" font-family="sans-serif" font-size="13" lengthAdjust="spacing" textLength="82" x="47.5" y="98.1045">add repaircard</text><!--MD5=[75892642b2491d7bea9d7c4986c02dd1]
link exists to *end*RepairCard--><path d="M46.5,169.8394 C46.5,185.3294 46.5,204.8994 46.5,218.0294 " fill="none" id="exists-to-*end*RepairCard" style="stroke:#FF0000;stroke-width:1.0;"/><polygon fill="#FF0000" points="46.5,223.2394,50.5,214.2394,46.5,218.2394,42.5,214.2394,46.5,223.2394" style="stroke:#FF0000;stroke-width:1.0;"/><text fill="#000000" font-family="sans-serif" font-size="13" lengthAdjust="spacing" textLength="96" x="47.5" y="202.1045">delete repaircard</text><!--MD5=[c4a522f978675ae79aa3d67da2c5bece]
@startuml

skinparam style strictuml
skinparam ArrowColor black

state RepairCard {
  [*] - -> exists : add repaircard
  exists -[#red]-> [*] : delete repaircard
}

@enduml

PlantUML version 1.2021.00(Sun Jan 10 11:25:05 CET 2021)
(GPL source distribution)
Java Runtime: OpenJDK Runtime Environment
JVM: OpenJDK 64-Bit Server VM
Default Encoding: UTF-8
Language: en
Country: US
--></g></svg>