<?xml version="1.0" encoding="utf-8"?>
<!-- created with bpmn-js / http://bpmn.io -->
<!DOCTYPE svg PUBLIC "-//W3C//DTD SVG 1.1//EN" "http://www.w3.org/Graphics/SVG/1.1/DTD/svg11.dtd">
<svg xmlns="http://www.w3.org/2000/svg" xmlns:xlink="http://www.w3.org/1999/xlink" width="768" height="451" viewBox="393 301 768 451" version="1.1"><defs><marker id="sequenceflow-end-white-black-5mvel6ughz9hm1epqrqx7hrub" viewBox="0 0 20 20" refX="11" refY="10" markerWidth="10" markerHeight="10" orient="auto"><path d="M 1 5 L 11 10 L 1 15 Z" style="fill: black; stroke-width: 1px; stroke-linecap: round; stroke-dasharray: 10000, 1; stroke: black;"/></marker><marker id="messageflow-end-white-black-5mvel6ughz9hm1epqrqx7hrub" viewBox="0 0 20 20" refX="8.5" refY="5" markerWidth="20" markerHeight="20" orient="auto"><path d="m 1 5 l 0 -3 l 7 3 l -7 3 z" style="fill: white; stroke-width: 1px; stroke-linecap: butt; stroke-dasharray: 10000, 1; stroke: black;"/></marker><marker id="messageflow-start-white-black-5mvel6ughz9hm1epqrqx7hrub" viewBox="0 0 20 20" refX="6" refY="6" markerWidth="20" markerHeight="20" orient="auto"><circle cx="6" cy="6" r="3.5" style="fill: white; stroke-width: 1px; stroke-linecap: round; stroke-dasharray: 10000, 1; stroke: black;"/></marker></defs><g class="djs-group"><g class="djs-element djs-shape" data-element-id="_4BF9417A-B40D-46A9-8C2F-A5DB84202363" style="display: block;" transform="matrix(1 0 0 1 399 307)"><g class="djs-visual"><rect x="0" y="0" width="756" height="439" rx="0" ry="0" style="stroke: black; stroke-width: 2px; fill: white; fill-opacity: 0.35;"/><text lineHeight="1.2" class="djs-label" style="font-family: Arial, sans-serif; font-size: 12px; font-weight: normal; fill: black;" transform="matrix(-1.83697e-16 -1 1 -1.83697e-16 0 439)"><tspan x="184.484375" y="18.6">FreeWheeler</tspan></text></g><rect class="djs-hit djs-hit-click-stroke" x="0" y="0" width="756" height="439" style="fill: none; stroke-opacity: 0; stroke: white; stroke-width: 15px;"/><rect class="djs-hit djs-hit-all" x="0" y="0" width="30" height="439" style="fill: none; stroke-opacity: 0; stroke: white; stroke-width: 15px;"/><rect x="-6" y="-6" width="768" height="451" class="djs-outline" style="fill: none;"/></g></g><g class="djs-group"><g class="djs-element djs-connection" data-element-id="_686B40A5-19D9-4E71-BA5D-BAB9CA95872E" style="display: block;"><g class="djs-visual"><path d="m  486,526L554,526 " style="fill: none; stroke-width: 2px; stroke: black; stroke-linejoin: round; marker-end: url('#sequenceflow-end-white-black-5mvel6ughz9hm1epqrqx7hrub');"/></g><polyline points="486,526 554,526 " class="djs-hit djs-hit-stroke" style="fill: none; stroke-opacity: 0; stroke: white; stroke-width: 15px;"/><rect x="480" y="520" width="80" height="12" class="djs-outline" style="fill: none;"/></g></g><g class="djs-group"><g class="djs-element djs-connection" data-element-id="_4DEF526A-8487-4831-9D88-0AC88038FADF" style="display: block;"><g class="djs-visual"><path d="m  610,526L684,526 " style="fill: none; stroke-width: 2px; stroke: black; stroke-linejoin: round; marker-end: url('#sequenceflow-end-white-black-5mvel6ughz9hm1epqrqx7hrub');"/></g><polyline points="610,526 684,526 " class="djs-hit djs-hit-stroke" style="fill: none; stroke-opacity: 0; stroke: white; stroke-width: 15px;"/><rect x="604" y="520" width="86" height="12" class="djs-outline" style="fill: none;"/></g></g><g class="djs-group"><g class="djs-element djs-connection" data-element-id="_6F5C034E-1255-4C82-A0E1-60A64ED15F2B" style="display: block;"><g class="djs-visual"><path d="m  582,498L582,394.5 L684,394.5 " style="fill: none; stroke-width: 2px; stroke: black; stroke-linejoin: round; marker-end: url('#sequenceflow-end-white-black-5mvel6ughz9hm1epqrqx7hrub');"/></g><polyline points="582,498 582,394.5 684,394.5 " class="djs-hit djs-hit-stroke" style="fill: none; stroke-opacity: 0; stroke: white; stroke-width: 15px;"/><rect x="576" y="388.5" width="114" height="115.5" class="djs-outline" style="fill: none;"/></g></g><g class="djs-group"><g class="djs-element djs-connection" data-element-id="_6E210847-C568-42B1-ACC4-AC4D31563C78" style="display: block;"><g class="djs-visual"><path d="m  582,554L582,658.5 L684,658.5 " style="fill: none; stroke-width: 2px; stroke: black; stroke-linejoin: round; marker-end: url('#sequenceflow-end-white-black-5mvel6ughz9hm1epqrqx7hrub');"/></g><polyline points="582,554 582,658.5 684,658.5 " class="djs-hit djs-hit-stroke" style="fill: none; stroke-opacity: 0; stroke: white; stroke-width: 15px;"/><rect x="576" y="548" width="114" height="116.5" class="djs-outline" style="fill: none;"/></g></g><g class="djs-group"><g class="djs-element djs-connection" data-element-id="_113EC05B-A9B9-485C-9F41-D5481816D1B0" style="display: block;"><g class="djs-visual"><path d="m  837,526L917,526 " style="fill: none; stroke-width: 2px; stroke: black; stroke-linejoin: round; marker-end: url('#sequenceflow-end-white-black-5mvel6ughz9hm1epqrqx7hrub');"/></g><polyline points="837,526 917,526 " class="djs-hit djs-hit-stroke" style="fill: none; stroke-opacity: 0; stroke: white; stroke-width: 15px;"/><rect x="831" y="520" width="92" height="12" class="djs-outline" style="fill: none;"/></g></g><g class="djs-group"><g class="djs-element djs-connection" data-element-id="_5FA274F2-D4B7-4335-B2A1-6A2EEA86DE63" style="display: block;"><g class="djs-visual"><path d="m  837,394.5L945,394.5 L945,498 " style="fill: none; stroke-width: 2px; stroke: black; stroke-linejoin: round; marker-end: url('#sequenceflow-end-white-black-5mvel6ughz9hm1epqrqx7hrub');"/></g><polyline points="837,394.5 945,394.5 945,498 " class="djs-hit djs-hit-stroke" style="fill: none; stroke-opacity: 0; stroke: white; stroke-width: 15px;"/><rect x="831" y="388.5" width="120" height="115.5" class="djs-outline" style="fill: none;"/></g></g><g class="djs-group"><g class="djs-element djs-connection" data-element-id="_09C1AEFA-E064-4853-9A73-9EC3F7C98A5D" style="display: block;"><g class="djs-visual"><path d="m  837,658.5L945,658.5 L945,554 " style="fill: none; stroke-width: 2px; stroke: black; stroke-linejoin: round; marker-end: url('#sequenceflow-end-white-black-5mvel6ughz9hm1epqrqx7hrub');"/></g><polyline points="837,658.5 945,658.5 945,554 " class="djs-hit djs-hit-stroke" style="fill: none; stroke-opacity: 0; stroke: white; stroke-width: 15px;"/><rect x="831" y="548" width="120" height="116.5" class="djs-outline" style="fill: none;"/></g></g><g class="djs-group"><g class="djs-element djs-connection" data-element-id="_7B9D43D4-3D28-4693-B59F-6B66003AA85F" style="display: block;"><g class="djs-visual"><path d="m  973,526L1053,526 " style="fill: none; stroke-width: 2px; stroke: black; stroke-linejoin: round; marker-end: url('#sequenceflow-end-white-black-5mvel6ughz9hm1epqrqx7hrub');"/></g><polyline points="973,526 1053,526 " class="djs-hit djs-hit-stroke" style="fill: none; stroke-opacity: 0; stroke: white; stroke-width: 15px;"/><rect x="967" y="520" width="92" height="12" class="djs-outline" style="fill: none;"/></g></g><g class="djs-group"><g class="djs-element djs-shape" data-element-id="_3E3446FA-5A51-4EDD-8A9D-2FD86B96B4AE" style="display: block;" transform="matrix(1 0 0 1 1053 498)"><g class="djs-visual"><circle cx="28" cy="28" r="28" style="stroke: black; stroke-width: 4px; fill: white; fill-opacity: 0.95;"/></g><rect class="djs-hit djs-hit-all" x="0" y="0" width="56" height="56" style="fill: none; stroke-opacity: 0; stroke: white; stroke-width: 15px;"/><rect x="-6" y="-6" width="68" height="68" class="djs-outline" style="fill: none;"/></g></g><g class="djs-group"><g class="djs-element djs-shape" data-element-id="_E1266F8F-196B-4845-B585-B716D4DC080D" style="display: block;" transform="matrix(1 0 0 1 917 498)"><g class="djs-visual"><polygon points="28,0 56,28 28,56 0,28" style="stroke: black; stroke-width: 2px; fill: white; fill-opacity: 0.95;"/><path d="m 25.76,11.200000000000001 0,13.999999999999998 -13.999999999999998,0 0,5.6 13.999999999999998,0 0,13.999999999999998 5.6,0 0,-13.999999999999998 13.999999999999998,0 0,-5.6 -13.999999999999998,0 0,-13.999999999999998 -5.6,0 z" style="fill: black; stroke-width: 1px; stroke: black;"/></g><rect class="djs-hit djs-hit-all" x="0" y="0" width="56" height="56" style="fill: none; stroke-opacity: 0; stroke: white; stroke-width: 15px;"/><rect x="-6" y="-6" width="68" height="68" class="djs-outline" style="fill: none;"/></g></g><g class="djs-group"><g class="djs-element djs-shape" data-element-id="_82DF2BC3-1A61-4138-BBC6-EB4184D52151" style="display: block;" transform="matrix(1 0 0 1 684 608)"><g class="djs-visual"><rect x="0" y="0" width="153" height="101" rx="10" ry="10" style="stroke: black; stroke-width: 5px; fill: white; fill-opacity: 0.95;"/><text lineHeight="1.2" class="djs-label" style="font-family: Arial, sans-serif; font-size: 12px; font-weight: normal; fill: black;"><tspan x="50.484375" y="54.099999999999994">Reparatie</tspan></text><rect x="0" y="0" width="14" height="14" rx="0" ry="0" style="stroke: black; stroke-width: 1px; fill: white;" transform="matrix(1 0 0 1 69 81)"/><path d="m69,81 m 7,2 l 0,10 m -5,-5 l 10,0" data-marker="sub-process" style="fill: white; stroke-width: 2px; stroke: black;"/></g><rect class="djs-hit djs-hit-all" x="0" y="0" width="153" height="101" style="fill: none; stroke-opacity: 0; stroke: white; stroke-width: 15px;"/><rect x="-6" y="-6" width="165" height="113" class="djs-outline" style="fill: none;"/></g></g><g class="djs-group"><g class="djs-element djs-shape" data-element-id="_F90DF3A7-3DC8-4054-8599-98AC80EB727D" style="display: block;" transform="matrix(1 0 0 1 684 344)"><g class="djs-visual"><rect x="0" y="0" width="153" height="101" rx="10" ry="10" style="stroke: black; stroke-width: 5px; fill: white; fill-opacity: 0.95;"/><text lineHeight="1.2" class="djs-label" style="font-family: Arial, sans-serif; font-size: 12px; font-weight: normal; fill: black;"><tspan x="58.484375" y="54.099999999999994">Inkoop</tspan></text><rect x="0" y="0" width="14" height="14" rx="0" ry="0" style="stroke: black; stroke-width: 1px; fill: white;" transform="matrix(1 0 0 1 69 81)"/><path d="m69,81 m 7,2 l 0,10 m -5,-5 l 10,0" data-marker="sub-process" style="fill: white; stroke-width: 2px; stroke: black;"/></g><rect class="djs-hit djs-hit-all" x="0" y="0" width="153" height="101" style="fill: none; stroke-opacity: 0; stroke: white; stroke-width: 15px;"/><rect x="-6" y="-6" width="165" height="113" class="djs-outline" style="fill: none;"/></g></g><g class="djs-group"><g class="djs-element djs-shape" data-element-id="_405880D5-7784-4CD5-817E-7DB145BD9EE7" style="display: block;" transform="matrix(1 0 0 1 684 476)"><g class="djs-visual"><rect x="0" y="0" width="153" height="101" rx="10" ry="10" style="stroke: black; stroke-width: 5px; fill: white; fill-opacity: 0.95;"/><text lineHeight="1.2" class="djs-label" style="font-family: Arial, sans-serif; font-size: 12px; font-weight: normal; fill: black;"><tspan x="54.8125" y="54.099999999999994">Verkoop</tspan></text><rect x="0" y="0" width="14" height="14" rx="0" ry="0" style="stroke: black; stroke-width: 1px; fill: white;" transform="matrix(1 0 0 1 69 81)"/><path d="m69,81 m 7,2 l 0,10 m -5,-5 l 10,0" data-marker="sub-process" style="fill: white; stroke-width: 2px; stroke: black;"/></g><rect class="djs-hit djs-hit-all" x="0" y="0" width="153" height="101" style="fill: none; stroke-opacity: 0; stroke: white; stroke-width: 15px;"/><rect x="-6" y="-6" width="165" height="113" class="djs-outline" style="fill: none;"/></g></g><g class="djs-group"><g class="djs-element djs-shape" data-element-id="_FAC273FB-1122-4961-86AC-0511074F6236" style="display: block;" transform="matrix(1 0 0 1 554 498)"><g class="djs-visual"><polygon points="28,0 56,28 28,56 0,28" style="stroke: black; stroke-width: 2px; fill: white; fill-opacity: 0.95;"/><path d="m 25.76,11.200000000000001 0,13.999999999999998 -13.999999999999998,0 0,5.6 13.999999999999998,0 0,13.999999999999998 5.6,0 0,-13.999999999999998 13.999999999999998,0 0,-5.6 -13.999999999999998,0 0,-13.999999999999998 -5.6,0 z" style="fill: black; stroke-width: 1px; stroke: black;"/></g><rect class="djs-hit djs-hit-all" x="0" y="0" width="56" height="56" style="fill: none; stroke-opacity: 0; stroke: white; stroke-width: 15px;"/><rect x="-6" y="-6" width="68" height="68" class="djs-outline" style="fill: none;"/></g></g><g class="djs-group"><g class="djs-element djs-shape" data-element-id="_323117DB-7946-4451-9390-EA27CA7E481C" style="display: block;" transform="matrix(1 0 0 1 430 498)"><g class="djs-visual"><circle cx="28" cy="28" r="28" style="stroke: black; stroke-width: 2px; fill: white; fill-opacity: 0.95;"/></g><rect class="djs-hit djs-hit-all" x="0" y="0" width="56" height="56" style="fill: none; stroke-opacity: 0; stroke: white; stroke-width: 15px;"/><rect x="-6" y="-6" width="68" height="68" class="djs-outline" style="fill: none;"/></g></g></svg>